solid OpenSCAD_Model
  facet normal -1 0 0
    outer loop
      vertex 0 100 0
      vertex 0 1 4
      vertex 0 100 4
    endloop
  endfacet
  facet normal -1 0 0
    outer loop
      vertex 0 0 0
      vertex 0 1 4
      vertex 0 100 0
    endloop
  endfacet
  facet normal -1 -0 0
    outer loop
      vertex 0 1 4
      vertex 0 0 0
      vertex 0 0 4
    endloop
  endfacet
  facet normal 0 0 1
    outer loop
      vertex 0.5 0.133974 4
      vertex 0 0 4
      vertex 1 0 4
    endloop
  endfacet
  facet normal 0 0 1
    outer loop
      vertex 0.133974 0.5 4
      vertex 0 0 4
      vertex 0.5 0.133974 4
    endloop
  endfacet
  facet normal 0 0 1
    outer loop
      vertex 0 0 4
      vertex 0.133974 0.5 4
      vertex 0 1 4
    endloop
  endfacet
  facet normal -0 0 1
    outer loop
      vertex 1.86602 1.5 4
      vertex 3 0 4
      vertex 3 100 4
    endloop
  endfacet
  facet normal 0 0 1
    outer loop
      vertex 3 0 4
      vertex 1.86602 1.5 4
      vertex 2 1 4
    endloop
  endfacet
  facet normal 0 0 1
    outer loop
      vertex 3 100 4
      vertex 1.5 1.86602 4
      vertex 1.86602 1.5 4
    endloop
  endfacet
  facet normal 0 0 1
    outer loop
      vertex 3 100 4
      vertex 1 2 4
      vertex 1.5 1.86602 4
    endloop
  endfacet
  facet normal -0 0 1
    outer loop
      vertex 0 100 4
      vertex 1 2 4
      vertex 3 100 4
    endloop
  endfacet
  facet normal 0 0 1
    outer loop
      vertex 1 2 4
      vertex 0 100 4
      vertex 0.5 1.86602 4
    endloop
  endfacet
  facet normal 0 0 1
    outer loop
      vertex 0.5 1.86602 4
      vertex 0 100 4
      vertex 0.133974 1.5 4
    endloop
  endfacet
  facet normal 0 0 1
    outer loop
      vertex 0.133974 1.5 4
      vertex 0 100 4
      vertex 0 1 4
    endloop
  endfacet
  facet normal -0 0 1
    outer loop
      vertex 1.86602 0.5 4
      vertex 3 0 4
      vertex 2 1 4
    endloop
  endfacet
  facet normal -0 0 1
    outer loop
      vertex 1.5 0.133974 4
      vertex 3 0 4
      vertex 1.86602 0.5 4
    endloop
  endfacet
  facet normal 0 0 1
    outer loop
      vertex 3 0 4
      vertex 1.5 0.133974 4
      vertex 1 0 4
    endloop
  endfacet
  facet normal 1 -0 0
    outer loop
      vertex 3 0 4
      vertex 3 100 0
      vertex 3 100 4
    endloop
  endfacet
  facet normal 1 0 0
    outer loop
      vertex 3 100 0
      vertex 3 0 4
      vertex 3 0 0
    endloop
  endfacet
  facet normal 0 1 -0
    outer loop
      vertex 3 100 0
      vertex 0 100 4
      vertex 3 100 4
    endloop
  endfacet
  facet normal 0 1 0
    outer loop
      vertex 0 100 4
      vertex 3 100 0
      vertex 0 100 0
    endloop
  endfacet
  facet normal 0 0 -1
    outer loop
      vertex 0 0 0
      vertex 3 100 0
      vertex 3 0 0
    endloop
  endfacet
  facet normal -0 0 -1
    outer loop
      vertex 3 100 0
      vertex 0 0 0
      vertex 0 100 0
    endloop
  endfacet
  facet normal 0 -1 0
    outer loop
      vertex 0 0 0
      vertex 1 0 4
      vertex 0 0 4
    endloop
  endfacet
  facet normal 0 -1 0
    outer loop
      vertex 3 0 0
      vertex 1 0 4
      vertex 0 0 0
    endloop
  endfacet
  facet normal 0 -1 0
    outer loop
      vertex 1 0 4
      vertex 3 0 0
      vertex 3 0 4
    endloop
  endfacet
  facet normal -1 0 0
    outer loop
      vertex 0 1 4.35
      vertex 0 100 8.35
      vertex 0 100 4.35
    endloop
  endfacet
  facet normal -1 0 0
    outer loop
      vertex 0 1 4.35
      vertex 0 1 8.35
      vertex 0 100 8.35
    endloop
  endfacet
  facet normal -1 0 0
    outer loop
      vertex 0 0 4.35
      vertex 0 1 8.35
      vertex 0 1 4.35
    endloop
  endfacet
  facet normal -1 -0 0
    outer loop
      vertex 0 1 8.35
      vertex 0 0 4.35
      vertex 0 0 8.35
    endloop
  endfacet
  facet normal 0 0 1
    outer loop
      vertex 0.5 0.133974 8.35
      vertex 0 0 8.35
      vertex 1 0 8.35
    endloop
  endfacet
  facet normal 0 0 1
    outer loop
      vertex 0.133974 0.5 8.35
      vertex 0 0 8.35
      vertex 0.5 0.133974 8.35
    endloop
  endfacet
  facet normal 0 0 1
    outer loop
      vertex 0 0 8.35
      vertex 0.133974 0.5 8.35
      vertex 0 1 8.35
    endloop
  endfacet
  facet normal -0 0 1
    outer loop
      vertex 1.86602 1.5 8.35
      vertex 3 0 8.35
      vertex 3 100 8.35
    endloop
  endfacet
  facet normal 0 0 1
    outer loop
      vertex 3 0 8.35
      vertex 1.86602 1.5 8.35
      vertex 2 1 8.35
    endloop
  endfacet
  facet normal 0 0 1
    outer loop
      vertex 3 100 8.35
      vertex 1.5 1.86602 8.35
      vertex 1.86602 1.5 8.35
    endloop
  endfacet
  facet normal 0 0 1
    outer loop
      vertex 3 100 8.35
      vertex 1 2 8.35
      vertex 1.5 1.86602 8.35
    endloop
  endfacet
  facet normal -0 0 1
    outer loop
      vertex 0 100 8.35
      vertex 1 2 8.35
      vertex 3 100 8.35
    endloop
  endfacet
  facet normal 0 0 1
    outer loop
      vertex 1 2 8.35
      vertex 0 100 8.35
      vertex 0.5 1.86602 8.35
    endloop
  endfacet
  facet normal 0 0 1
    outer loop
      vertex 0.5 1.86602 8.35
      vertex 0 100 8.35
      vertex 0.133974 1.5 8.35
    endloop
  endfacet
  facet normal 0 0 1
    outer loop
      vertex 0.133974 1.5 8.35
      vertex 0 100 8.35
      vertex 0 1 8.35
    endloop
  endfacet
  facet normal -0 0 1
    outer loop
      vertex 1.86602 0.5 8.35
      vertex 3 0 8.35
      vertex 2 1 8.35
    endloop
  endfacet
  facet normal -0 0 1
    outer loop
      vertex 1.5 0.133974 8.35
      vertex 3 0 8.35
      vertex 1.86602 0.5 8.35
    endloop
  endfacet
  facet normal 0 0 1
    outer loop
      vertex 3 0 8.35
      vertex 1.5 0.133974 8.35
      vertex 1 0 8.35
    endloop
  endfacet
  facet normal 1 -0 0
    outer loop
      vertex 3 0 8.35
      vertex 3 100 4.35
      vertex 3 100 8.35
    endloop
  endfacet
  facet normal 1 0 0
    outer loop
      vertex 3 100 4.35
      vertex 3 0 8.35
      vertex 3 0 4.35
    endloop
  endfacet
  facet normal 0 1 -0
    outer loop
      vertex 3 100 4.35
      vertex 0 100 8.35
      vertex 3 100 8.35
    endloop
  endfacet
  facet normal 0 1 0
    outer loop
      vertex 0 100 8.35
      vertex 3 100 4.35
      vertex 0 100 4.35
    endloop
  endfacet
  facet normal 0 0 -1
    outer loop
      vertex 1.86602 1.5 4.35
      vertex 3 0 4.35
      vertex 2 1 4.35
    endloop
  endfacet
  facet normal 0 0 -1
    outer loop
      vertex 3 0 4.35
      vertex 1.86602 0.5 4.35
      vertex 2 1 4.35
    endloop
  endfacet
  facet normal 0 0 -1
    outer loop
      vertex 3 0 4.35
      vertex 1.5 0.133974 4.35
      vertex 1.86602 0.5 4.35
    endloop
  endfacet
  facet normal 0 -0 -1
    outer loop
      vertex 1.5 0.133974 4.35
      vertex 3 0 4.35
      vertex 1 0 4.35
    endloop
  endfacet
  facet normal 0 0 -1
    outer loop
      vertex 3 0 4.35
      vertex 1.86602 1.5 4.35
      vertex 3 100 4.35
    endloop
  endfacet
  facet normal 0 0 -1
    outer loop
      vertex 1.5 1.86602 4.35
      vertex 3 100 4.35
      vertex 1.86602 1.5 4.35
    endloop
  endfacet
  facet normal 0 0 -1
    outer loop
      vertex 1 2 4.35
      vertex 3 100 4.35
      vertex 1.5 1.86602 4.35
    endloop
  endfacet
  facet normal 0 0 -1
    outer loop
      vertex 0 100 4.35
      vertex 1 2 4.35
      vertex 0.5 1.86602 4.35
    endloop
  endfacet
  facet normal 0 0 -1
    outer loop
      vertex 0 100 4.35
      vertex 0.5 1.86602 4.35
      vertex 0.133974 1.5 4.35
    endloop
  endfacet
  facet normal 0 0 -1
    outer loop
      vertex 0 100 4.35
      vertex 0.133974 1.5 4.35
      vertex 0 1 4.35
    endloop
  endfacet
  facet normal 0 0 -1
    outer loop
      vertex 1 2 4.35
      vertex 0 100 4.35
      vertex 3 100 4.35
    endloop
  endfacet
  facet normal 0 0 -1
    outer loop
      vertex 0 0 4.35
      vertex 0.5 0.133974 4.35
      vertex 1 0 4.35
    endloop
  endfacet
  facet normal 0 0 -1
    outer loop
      vertex 0 0 4.35
      vertex 0.133974 0.5 4.35
      vertex 0.5 0.133974 4.35
    endloop
  endfacet
  facet normal -0 0 -1
    outer loop
      vertex 0.133974 0.5 4.35
      vertex 0 0 4.35
      vertex 0 1 4.35
    endloop
  endfacet
  facet normal 0 -1 0
    outer loop
      vertex 1 0 4.35
      vertex 1 0 8.35
      vertex 0 0 8.35
    endloop
  endfacet
  facet normal 0 -1 0
    outer loop
      vertex 1 0 4.35
      vertex 0 0 8.35
      vertex 0 0 4.35
    endloop
  endfacet
  facet normal 0 -1 0
    outer loop
      vertex 1 0 8.35
      vertex 1 0 4.35
      vertex 3 0 8.35
    endloop
  endfacet
  facet normal 0 -1 -0
    outer loop
      vertex 3 0 8.35
      vertex 1 0 4.35
      vertex 3 0 4.35
    endloop
  endfacet
  facet normal -1 0 0
    outer loop
      vertex 0 1 8.7
      vertex 0 100 12.7
      vertex 0 100 8.7
    endloop
  endfacet
  facet normal -1 0 0
    outer loop
      vertex 0 0 12.7
      vertex 0 1 8.7
      vertex 0 0 8.7
    endloop
  endfacet
  facet normal -1 0 0
    outer loop
      vertex 0 1 8.7
      vertex 0 0 12.7
      vertex 0 100 12.7
    endloop
  endfacet
  facet normal -0 0 1
    outer loop
      vertex 0 100 12.7
      vertex 3 0 12.7
      vertex 3 100 12.7
    endloop
  endfacet
  facet normal 0 0 1
    outer loop
      vertex 3 0 12.7
      vertex 0 100 12.7
      vertex 0 0 12.7
    endloop
  endfacet
  facet normal 1 -0 0
    outer loop
      vertex 3 0 12.7
      vertex 3 100 8.7
      vertex 3 100 12.7
    endloop
  endfacet
  facet normal 1 0 0
    outer loop
      vertex 3 100 8.7
      vertex 3 0 12.7
      vertex 3 0 8.7
    endloop
  endfacet
  facet normal 0 1 -0
    outer loop
      vertex 3 100 8.7
      vertex 0 100 12.7
      vertex 3 100 12.7
    endloop
  endfacet
  facet normal 0 1 0
    outer loop
      vertex 0 100 12.7
      vertex 3 100 8.7
      vertex 0 100 8.7
    endloop
  endfacet
  facet normal 0 0 -1
    outer loop
      vertex 1.86602 1.5 8.7
      vertex 3 0 8.7
      vertex 2 1 8.7
    endloop
  endfacet
  facet normal 0 0 -1
    outer loop
      vertex 3 0 8.7
      vertex 1.86602 0.5 8.7
      vertex 2 1 8.7
    endloop
  endfacet
  facet normal 0 0 -1
    outer loop
      vertex 3 0 8.7
      vertex 1.5 0.133974 8.7
      vertex 1.86602 0.5 8.7
    endloop
  endfacet
  facet normal 0 -0 -1
    outer loop
      vertex 1.5 0.133974 8.7
      vertex 3 0 8.7
      vertex 1 0 8.7
    endloop
  endfacet
  facet normal 0 0 -1
    outer loop
      vertex 3 0 8.7
      vertex 1.86602 1.5 8.7
      vertex 3 100 8.7
    endloop
  endfacet
  facet normal 0 0 -1
    outer loop
      vertex 1.5 1.86602 8.7
      vertex 3 100 8.7
      vertex 1.86602 1.5 8.7
    endloop
  endfacet
  facet normal 0 0 -1
    outer loop
      vertex 1 2 8.7
      vertex 3 100 8.7
      vertex 1.5 1.86602 8.7
    endloop
  endfacet
  facet normal 0 0 -1
    outer loop
      vertex 0 100 8.7
      vertex 1 2 8.7
      vertex 0.5 1.86602 8.7
    endloop
  endfacet
  facet normal 0 0 -1
    outer loop
      vertex 0 100 8.7
      vertex 0.5 1.86602 8.7
      vertex 0.133974 1.5 8.7
    endloop
  endfacet
  facet normal 0 0 -1
    outer loop
      vertex 0 100 8.7
      vertex 0.133974 1.5 8.7
      vertex 0 1 8.7
    endloop
  endfacet
  facet normal 0 0 -1
    outer loop
      vertex 1 2 8.7
      vertex 0 100 8.7
      vertex 3 100 8.7
    endloop
  endfacet
  facet normal 0 0 -1
    outer loop
      vertex 0 0 8.7
      vertex 0.5 0.133974 8.7
      vertex 1 0 8.7
    endloop
  endfacet
  facet normal 0 0 -1
    outer loop
      vertex 0 0 8.7
      vertex 0.133974 0.5 8.7
      vertex 0.5 0.133974 8.7
    endloop
  endfacet
  facet normal -0 0 -1
    outer loop
      vertex 0.133974 0.5 8.7
      vertex 0 0 8.7
      vertex 0 1 8.7
    endloop
  endfacet
  facet normal 0 -1 0
    outer loop
      vertex 1 0 8.7
      vertex 0 0 12.7
      vertex 0 0 8.7
    endloop
  endfacet
  facet normal 0 -1 0
    outer loop
      vertex 0 0 12.7
      vertex 1 0 8.7
      vertex 3 0 12.7
    endloop
  endfacet
  facet normal 0 -1 -0
    outer loop
      vertex 3 0 12.7
      vertex 1 0 8.7
      vertex 3 0 8.7
    endloop
  endfacet
  facet normal 0.965923 0.258829 0
    outer loop
      vertex 2 1 4.35
      vertex 1.86602 1.5 4
      vertex 1.86602 1.5 4.35
    endloop
  endfacet
  facet normal 0.965923 0.258829 0
    outer loop
      vertex 1.86602 1.5 4
      vertex 2 1 4.35
      vertex 2 1 4
    endloop
  endfacet
  facet normal 0.965923 0.258829 0
    outer loop
      vertex 2 1 8.7
      vertex 1.86602 1.5 8.35
      vertex 1.86602 1.5 8.7
    endloop
  endfacet
  facet normal 0.965923 0.258829 0
    outer loop
      vertex 1.86602 1.5 8.35
      vertex 2 1 8.7
      vertex 2 1 8.35
    endloop
  endfacet
  facet normal -0.965926 -0.258818 0
    outer loop
      vertex 0.133974 0.5 4
      vertex 0 1 4.35
      vertex 0 1 4
    endloop
  endfacet
  facet normal -0.965926 -0.258818 0
    outer loop
      vertex 0 1 4.35
      vertex 0.133974 0.5 4
      vertex 0.133974 0.5 4.35
    endloop
  endfacet
  facet normal -0.965926 -0.258818 0
    outer loop
      vertex 0.133974 0.5 8.35
      vertex 0 1 8.7
      vertex 0 1 8.35
    endloop
  endfacet
  facet normal -0.965926 -0.258818 0
    outer loop
      vertex 0 1 8.7
      vertex 0.133974 0.5 8.35
      vertex 0.133974 0.5 8.7
    endloop
  endfacet
  facet normal -0.258829 0.965923 0
    outer loop
      vertex 1 2 4
      vertex 0.5 1.86602 4.35
      vertex 1 2 4.35
    endloop
  endfacet
  facet normal -0.258829 0.965923 0
    outer loop
      vertex 0.5 1.86602 4.35
      vertex 1 2 4
      vertex 0.5 1.86602 4
    endloop
  endfacet
  facet normal -0.258829 0.965923 0
    outer loop
      vertex 1 2 8.35
      vertex 0.5 1.86602 8.7
      vertex 1 2 8.7
    endloop
  endfacet
  facet normal -0.258829 0.965923 0
    outer loop
      vertex 0.5 1.86602 8.7
      vertex 1 2 8.35
      vertex 0.5 1.86602 8.35
    endloop
  endfacet
  facet normal -0.707101 0.707113 0
    outer loop
      vertex 0.5 1.86602 4
      vertex 0.133974 1.5 4.35
      vertex 0.5 1.86602 4.35
    endloop
  endfacet
  facet normal -0.707101 0.707113 0
    outer loop
      vertex 0.133974 1.5 4.35
      vertex 0.5 1.86602 4
      vertex 0.133974 1.5 4
    endloop
  endfacet
  facet normal -0.707101 0.707113 0
    outer loop
      vertex 0.5 1.86602 8.35
      vertex 0.133974 1.5 8.7
      vertex 0.5 1.86602 8.7
    endloop
  endfacet
  facet normal -0.707101 0.707113 0
    outer loop
      vertex 0.133974 1.5 8.7
      vertex 0.5 1.86602 8.35
      vertex 0.133974 1.5 8.35
    endloop
  endfacet
  facet normal 0.258818 -0.965926 0
    outer loop
      vertex 1 0 4
      vertex 1.5 0.133974 4.35
      vertex 1 0 4.35
    endloop
  endfacet
  facet normal 0.258818 -0.965926 0
    outer loop
      vertex 1.5 0.133974 4.35
      vertex 1 0 4
      vertex 1.5 0.133974 4
    endloop
  endfacet
  facet normal 0.258818 -0.965926 0
    outer loop
      vertex 1 0 8.35
      vertex 1.5 0.133974 8.7
      vertex 1 0 8.7
    endloop
  endfacet
  facet normal 0.258818 -0.965926 0
    outer loop
      vertex 1.5 0.133974 8.7
      vertex 1 0 8.35
      vertex 1.5 0.133974 8.35
    endloop
  endfacet
  facet normal 0.707113 -0.707101 0
    outer loop
      vertex 1.5 0.133974 4.35
      vertex 1.86602 0.5 4
      vertex 1.86602 0.5 4.35
    endloop
  endfacet
  facet normal 0.707113 -0.707101 0
    outer loop
      vertex 1.86602 0.5 4
      vertex 1.5 0.133974 4.35
      vertex 1.5 0.133974 4
    endloop
  endfacet
  facet normal 0.707113 -0.707101 0
    outer loop
      vertex 1.5 0.133974 8.7
      vertex 1.86602 0.5 8.35
      vertex 1.86602 0.5 8.7
    endloop
  endfacet
  facet normal 0.707113 -0.707101 0
    outer loop
      vertex 1.86602 0.5 8.35
      vertex 1.5 0.133974 8.7
      vertex 1.5 0.133974 8.35
    endloop
  endfacet
  facet normal -0.707107 -0.707107 0
    outer loop
      vertex 0.5 0.133974 4
      vertex 0.133974 0.5 4.35
      vertex 0.133974 0.5 4
    endloop
  endfacet
  facet normal -0.707107 -0.707107 0
    outer loop
      vertex 0.133974 0.5 4.35
      vertex 0.5 0.133974 4
      vertex 0.5 0.133974 4.35
    endloop
  endfacet
  facet normal -0.707107 -0.707107 0
    outer loop
      vertex 0.5 0.133974 8.35
      vertex 0.133974 0.5 8.7
      vertex 0.133974 0.5 8.35
    endloop
  endfacet
  facet normal -0.707107 -0.707107 0
    outer loop
      vertex 0.133974 0.5 8.7
      vertex 0.5 0.133974 8.35
      vertex 0.5 0.133974 8.7
    endloop
  endfacet
  facet normal 0.258829 0.965923 -0
    outer loop
      vertex 1.5 1.86602 4
      vertex 1 2 4.35
      vertex 1.5 1.86602 4.35
    endloop
  endfacet
  facet normal 0.258829 0.965923 0
    outer loop
      vertex 1 2 4.35
      vertex 1.5 1.86602 4
      vertex 1 2 4
    endloop
  endfacet
  facet normal 0.258829 0.965923 -0
    outer loop
      vertex 1.5 1.86602 8.35
      vertex 1 2 8.7
      vertex 1.5 1.86602 8.7
    endloop
  endfacet
  facet normal 0.258829 0.965923 0
    outer loop
      vertex 1 2 8.7
      vertex 1.5 1.86602 8.35
      vertex 1 2 8.35
    endloop
  endfacet
  facet normal 0.707107 0.707107 0
    outer loop
      vertex 1.86602 1.5 4.35
      vertex 1.5 1.86602 4
      vertex 1.5 1.86602 4.35
    endloop
  endfacet
  facet normal 0.707107 0.707107 0
    outer loop
      vertex 1.5 1.86602 4
      vertex 1.86602 1.5 4.35
      vertex 1.86602 1.5 4
    endloop
  endfacet
  facet normal 0.707107 0.707107 0
    outer loop
      vertex 1.86602 1.5 8.7
      vertex 1.5 1.86602 8.35
      vertex 1.5 1.86602 8.7
    endloop
  endfacet
  facet normal 0.707107 0.707107 0
    outer loop
      vertex 1.5 1.86602 8.35
      vertex 1.86602 1.5 8.7
      vertex 1.86602 1.5 8.35
    endloop
  endfacet
  facet normal -0.965926 0.258818 0
    outer loop
      vertex 0 1 4
      vertex 0.133974 1.5 4.35
      vertex 0.133974 1.5 4
    endloop
  endfacet
  facet normal -0.965926 0.258818 0
    outer loop
      vertex 0.133974 1.5 4.35
      vertex 0 1 4
      vertex 0 1 4.35
    endloop
  endfacet
  facet normal -0.965926 0.258818 0
    outer loop
      vertex 0 1 8.35
      vertex 0.133974 1.5 8.7
      vertex 0.133974 1.5 8.35
    endloop
  endfacet
  facet normal -0.965926 0.258818 0
    outer loop
      vertex 0.133974 1.5 8.7
      vertex 0 1 8.35
      vertex 0 1 8.7
    endloop
  endfacet
  facet normal 0.965923 -0.258829 0
    outer loop
      vertex 1.86602 0.5 4.35
      vertex 2 1 4
      vertex 2 1 4.35
    endloop
  endfacet
  facet normal 0.965923 -0.258829 0
    outer loop
      vertex 2 1 4
      vertex 1.86602 0.5 4.35
      vertex 1.86602 0.5 4
    endloop
  endfacet
  facet normal 0.965923 -0.258829 0
    outer loop
      vertex 1.86602 0.5 8.7
      vertex 2 1 8.35
      vertex 2 1 8.7
    endloop
  endfacet
  facet normal 0.965923 -0.258829 0
    outer loop
      vertex 2 1 8.35
      vertex 1.86602 0.5 8.7
      vertex 1.86602 0.5 8.35
    endloop
  endfacet
  facet normal -0.258818 -0.965926 0
    outer loop
      vertex 0.5 0.133974 4
      vertex 1 0 4.35
      vertex 0.5 0.133974 4.35
    endloop
  endfacet
  facet normal -0.258818 -0.965926 -0
    outer loop
      vertex 1 0 4.35
      vertex 0.5 0.133974 4
      vertex 1 0 4
    endloop
  endfacet
  facet normal -0.258818 -0.965926 0
    outer loop
      vertex 0.5 0.133974 8.35
      vertex 1 0 8.7
      vertex 0.5 0.133974 8.7
    endloop
  endfacet
  facet normal -0.258818 -0.965926 -0
    outer loop
      vertex 1 0 8.7
      vertex 0.5 0.133974 8.35
      vertex 1 0 8.35
    endloop
  endfacet
endsolid OpenSCAD_Model
